<svg width="25" height="25" viewBox="0 0 25 25" fill="none" xmlns="http://www.w3.org/2000/svg">
<path d="M10.8766 21.3186C10.8765 21.1658 10.8429 21.0149 10.7781 20.8766C10.7132 20.7383 10.6188 20.6159 10.5014 20.5182C10.384 20.4204 10.2465 20.3497 10.0987 20.311C9.95092 20.2723 9.79643 20.2666 9.64619 20.2942C8.28257 20.5445 6.56087 20.5821 6.1031 19.2963C5.70394 18.3005 5.04276 17.4312 4.18965 16.7807C4.12878 16.7476 4.07077 16.7095 4.01621 16.6668C3.94155 16.4698 3.80893 16.3001 3.63586 16.1801C3.46279 16.06 3.25739 15.9953 3.04676 15.9944H3.04168C2.76626 15.9943 2.50202 16.1033 2.3068 16.2975C2.11157 16.4918 2.00126 16.7555 2.00001 17.0309C1.99594 17.8803 2.84481 18.4246 3.18918 18.6087C3.59527 19.0167 3.92163 19.4969 4.1515 20.0247C4.53094 21.0908 5.63364 22.7082 8.8034 22.4997C8.80444 22.5363 8.80543 22.5709 8.80594 22.6024L8.81051 22.8812C8.81051 23.1574 8.92026 23.4224 9.11561 23.6177C9.31096 23.8131 9.57591 23.9228 9.85218 23.9228C10.1284 23.9228 10.3934 23.8131 10.5888 23.6177C10.7841 23.4224 10.8938 23.1574 10.8938 22.8812L10.8888 22.5495C10.8837 22.3521 10.8766 22.0663 10.8766 21.3186ZM21.988 5.56236C22.0211 5.43215 22.0536 5.28771 22.0821 5.12495C22.2506 3.9641 22.1037 2.77931 21.6569 1.69474C21.6005 1.55334 21.5139 1.42599 21.4031 1.32162C21.2923 1.21724 21.16 1.13835 21.0155 1.0905C20.6447 0.965373 19.2755 0.719196 16.6571 2.39258C14.4806 1.88039 12.2149 1.88039 10.0384 2.39258C7.43062 0.743706 6.06851 0.967456 5.70129 1.08546C5.55323 1.13137 5.41732 1.20984 5.30352 1.3151C5.18973 1.42036 5.10093 1.54975 5.04363 1.69379C4.58769 2.79918 4.44242 4.00814 4.6235 5.19008C4.64894 5.32334 4.6764 5.44643 4.70489 5.55934C3.84194 6.70876 3.3823 8.11076 3.39721 9.54799C3.3944 9.86865 3.40917 10.1892 3.44146 10.5083C3.78938 15.3026 6.91438 16.742 9.09178 17.2364C9.04652 17.3666 9.00533 17.506 8.9687 17.6535C8.90343 17.9215 8.94711 18.2044 9.09016 18.4403C9.23321 18.6762 9.46395 18.8457 9.7318 18.9117C9.99964 18.9776 10.2827 18.9347 10.519 18.7923C10.7552 18.6499 10.9253 18.4196 10.992 18.1519C11.0583 17.8048 11.2282 17.486 11.4793 17.2374C11.6311 17.1045 11.741 16.9303 11.7957 16.736C11.8503 16.5418 11.8474 16.3358 11.7871 16.1432C11.7269 15.9507 11.612 15.7797 11.4564 15.6512C11.3007 15.5228 11.1112 15.4423 10.9106 15.4196C7.31262 15.0086 5.75062 13.5427 5.51564 10.317C5.48961 10.0615 5.47789 9.8048 5.48055 9.548C5.46383 8.52368 5.80224 7.52516 6.43828 6.72207C6.50219 6.63834 6.57027 6.55788 6.64224 6.48098C6.76978 6.33827 6.85552 6.16319 6.89007 5.97494C6.92462 5.7867 6.90663 5.59257 6.83808 5.41388C6.7678 5.22589 6.71369 5.03225 6.67634 4.83506C6.59147 4.27435 6.61931 3.70234 6.75821 3.15252C7.66356 3.40822 8.51563 3.82444 9.27384 4.38135C9.39922 4.46487 9.5411 4.52044 9.68985 4.54431C9.8386 4.56819 9.99074 4.55979 10.136 4.51971C12.2413 3.94835 14.4609 3.94871 16.566 4.52075C16.712 4.56079 16.865 4.5687 17.0143 4.54394C17.1637 4.51918 17.3059 4.46234 17.4312 4.37732C18.1859 3.81809 19.0343 3.39815 19.9367 3.13729C20.075 3.67391 20.1059 4.23256 20.0277 4.78116C19.99 4.99735 19.931 5.20929 19.8517 5.4139C19.7832 5.59259 19.7652 5.78672 19.7997 5.97496C19.8343 6.16321 19.92 6.33829 20.0476 6.481C20.1279 6.57153 20.2083 6.66919 20.2805 6.76074C20.9121 7.55023 21.2448 8.53727 21.22 9.54799C21.2219 9.81841 21.2088 10.0887 21.1808 10.3577C20.9514 13.5407 19.3833 15.0076 15.7685 15.4196C15.568 15.4424 15.3784 15.523 15.2228 15.6516C15.0672 15.7802 14.9523 15.9513 14.8921 16.144C14.8319 16.3366 14.829 16.5427 14.8837 16.737C14.9385 16.9313 15.0485 17.1055 15.2004 17.2384C15.4594 17.4936 15.6296 17.8252 15.6861 18.1845C15.7565 18.4633 15.7889 18.7504 15.7823 19.0379V21.4692C15.7721 22.1436 15.7721 22.6492 15.7721 22.8811C15.7721 23.1574 15.8818 23.4223 16.0772 23.6177C16.2725 23.813 16.5375 23.9228 16.8137 23.9228C17.09 23.9228 17.355 23.813 17.5503 23.6177C17.7457 23.4223 17.8554 23.1574 17.8554 22.8811C17.8554 22.6553 17.8554 22.1599 17.8656 21.4854V19.0379C17.874 18.5773 17.8197 18.1177 17.7043 17.6718C17.6713 17.5254 17.6309 17.3807 17.5833 17.2384C19.1679 16.9752 20.6077 16.1582 21.6464 14.9328C22.6851 13.7075 23.2553 12.1533 23.2555 10.5469C23.2898 10.2151 23.3058 9.8816 23.3033 9.54799C23.3264 8.10921 22.863 6.70479 21.988 5.56238L21.988 5.56236Z" fill="#333333"/>
</svg>
