<svg width="25" height="25" viewBox="0 0 25 25" fill="none" xmlns="http://www.w3.org/2000/svg">
<path d="M12.5 7.29165C11.4699 7.29165 10.4629 7.59711 9.60641 8.16941C8.7499 8.74171 8.08234 9.55514 7.68813 10.5068C7.29392 11.4585 7.19078 12.5058 7.39175 13.5161C7.59271 14.5264 8.08876 15.4544 8.81716 16.1828C9.54555 16.9112 10.4736 17.4073 11.4839 17.6082C12.4942 17.8092 13.5414 17.7061 14.4931 17.3119C15.4448 16.9176 16.2583 16.2501 16.8306 15.3936C17.4029 14.5371 17.7083 13.5301 17.7083 12.5C17.7083 11.1186 17.1596 9.79388 16.1829 8.81713C15.2061 7.84038 13.8813 7.29165 12.5 7.29165ZM12.5 15.625C11.8819 15.625 11.2778 15.4417 10.7638 15.0983C10.2499 14.7549 9.8494 14.2669 9.61288 13.6959C9.37636 13.1248 9.31447 12.4965 9.43505 11.8903C9.55563 11.2841 9.85325 10.7273 10.2903 10.2903C10.7273 9.85323 11.2842 9.5556 11.8903 9.43503C12.4965 9.31445 13.1249 9.37633 13.6959 9.61286C14.2669 9.84938 14.755 10.2499 15.0983 10.7638C15.4417 11.2777 15.625 11.8819 15.625 12.5C15.625 13.3288 15.2958 14.1236 14.7097 14.7097C14.1237 15.2957 13.3288 15.625 12.5 15.625ZM17.7083 6.24998C17.5023 6.24998 17.3009 6.31107 17.1296 6.42553C16.9583 6.53999 16.8248 6.70268 16.746 6.89302C16.6671 7.08336 16.6465 7.2928 16.6867 7.49487C16.7269 7.69693 16.8261 7.88254 16.9718 8.02822C17.1174 8.1739 17.3031 8.27311 17.5051 8.3133C17.7072 8.35349 17.9166 8.33286 18.107 8.25402C18.2973 8.17518 18.46 8.04167 18.5745 7.87037C18.6889 7.69906 18.75 7.49767 18.75 7.29165C18.75 7.01538 18.6403 6.75043 18.4449 6.55508C18.2496 6.35973 17.9846 6.24998 17.7083 6.24998ZM22.8542 8.58331C22.8369 7.69313 22.6678 6.81242 22.3542 5.97915C22.0633 5.22088 21.6162 4.53226 21.042 3.958C20.4677 3.38373 19.7791 2.93666 19.0208 2.64581C18.1876 2.33217 17.3069 2.16307 16.4167 2.14581C15.4063 2.08331 15.0729 2.08331 12.5 2.08331C9.92709 2.08331 9.59375 2.08331 8.58334 2.14581C7.69315 2.16307 6.81245 2.33217 5.97917 2.64581C5.2209 2.93666 4.53229 3.38373 3.95802 3.958C3.38376 4.53226 2.93669 5.22088 2.64584 5.97915C2.33219 6.81242 2.16309 7.69313 2.14584 8.58331C2.08334 9.60415 2.08334 9.93748 2.08334 12.5C2.08334 15.0625 2.08334 15.3958 2.14584 16.4166C2.16309 17.3068 2.33219 18.1875 2.64584 19.0208C2.93669 19.7791 3.38376 20.4677 3.95802 21.042C4.53229 21.6162 5.2209 22.0633 5.97917 22.3541C6.81245 22.6678 7.69315 22.8369 8.58334 22.8541C9.625 22.8541 9.92709 22.9166 12.5 22.9166C15.0729 22.9166 15.4063 22.9166 16.4167 22.8541C17.3069 22.8369 18.1876 22.6678 19.0208 22.3541C19.7791 22.0633 20.4677 21.6162 21.042 21.042C21.6162 20.4677 22.0633 19.7791 22.3542 19.0208C22.6678 18.1875 22.8369 17.3068 22.8542 16.4166C22.8542 15.375 22.9167 15.0625 22.9167 12.5C22.9167 9.93748 22.9167 9.60415 22.8542 8.58331ZM20.7708 16.3229C20.7526 16.984 20.6295 17.6379 20.4063 18.2604C20.2217 18.7524 19.9299 19.1972 19.5521 19.5625C19.189 19.9404 18.7433 20.2292 18.25 20.4062C17.6261 20.6386 16.9677 20.7654 16.3021 20.7812C15.3229 20.7812 15.0208 20.8333 12.4896 20.8333C9.95834 20.8333 9.66667 20.8333 8.6875 20.8333C8.02294 20.8162 7.36537 20.6931 6.73959 20.4687C6.24756 20.2841 5.80278 19.9924 5.4375 19.6146C5.05954 19.2515 4.77075 18.8058 4.59375 18.3125C4.3623 17.6919 4.23557 17.0371 4.21875 16.375C4.21875 15.3333 4.21875 15.0729 4.21875 12.5521C4.21875 10.0312 4.21875 9.72915 4.21875 8.72915C4.23671 8.06374 4.36338 7.40575 4.59375 6.78123C4.7735 6.29231 5.06202 5.85063 5.4375 5.48956C5.8006 5.1116 6.24626 4.82281 6.73959 4.64581C7.36353 4.41341 8.02187 4.28668 8.6875 4.27081C9.66667 4.16665 9.96875 4.16665 12.5 4.16665C15.0313 4.16665 15.3333 4.16665 16.3125 4.16665C16.9814 4.18366 17.643 4.31034 18.2708 4.54165C18.7598 4.72139 19.2014 5.00991 19.5625 5.3854C19.9405 5.7485 20.2293 6.19416 20.4063 6.68748C20.6613 7.3214 20.8057 7.99434 20.8333 8.67706C20.8333 9.71873 20.8854 9.97915 20.8854 12.5C20.8854 15.0208 20.8333 15.3229 20.8333 16.3229H20.7708Z" fill="#F4F4F4"/>
</svg>
