<svg width="38" height="24" viewBox="0 0 38 24" fill="none" xmlns="http://www.w3.org/2000/svg">
<path d="M10.9091 9.15625C10.8097 8.81061 10.67 8.50521 10.4901 8.24006C10.3101 7.97017 10.09 7.7429 9.82955 7.55824C9.57386 7.36884 9.2803 7.22443 8.94886 7.125C8.62216 7.02557 8.25994 6.97585 7.86222 6.97585C7.11884 6.97585 6.46544 7.16051 5.90199 7.52983C5.34328 7.89915 4.90767 8.43655 4.59517 9.14205C4.28267 9.8428 4.12642 10.6998 4.12642 11.7131C4.12642 12.7263 4.2803 13.5881 4.58807 14.2983C4.89583 15.0085 5.33144 15.5507 5.89489 15.9247C6.45833 16.294 7.12358 16.4787 7.89062 16.4787C8.58665 16.4787 9.18087 16.3556 9.6733 16.1094C10.1705 15.8584 10.5492 15.5057 10.8097 15.0511C11.0748 14.5966 11.2074 14.0592 11.2074 13.4389L11.8324 13.5312H8.08239V11.2159H14.169V13.0483C14.169 14.3267 13.8991 15.4252 13.3594 16.3438C12.8196 17.2576 12.0762 17.9631 11.1293 18.4602C10.1823 18.9527 9.09801 19.1989 7.87642 19.1989C6.51278 19.1989 5.31487 18.8982 4.28267 18.2969C3.25047 17.6908 2.44555 16.8314 1.8679 15.7188C1.29498 14.6013 1.00852 13.2756 1.00852 11.7415C1.00852 10.5625 1.17898 9.51136 1.51989 8.58807C1.86553 7.66004 2.34848 6.87405 2.96875 6.23011C3.58902 5.58617 4.31108 5.09612 5.13494 4.75994C5.95881 4.42377 6.85133 4.25568 7.8125 4.25568C8.63636 4.25568 9.40341 4.37642 10.1136 4.6179C10.8239 4.85464 11.4536 5.19081 12.0028 5.62642C12.5568 6.06203 13.009 6.58049 13.3594 7.18182C13.7098 7.77841 13.9347 8.43655 14.0341 9.15625H10.9091ZM22.7575 3.77273L18.07 21.1875H15.4634L20.1509 3.77273H22.7575ZM26.7791 19H23.4837L28.505 4.45455H32.468L37.4822 19H34.1868L30.5433 7.77841H30.4297L26.7791 19ZM26.5732 13.2827H34.3572V15.6832H26.5732V13.2827Z" fill="#F4F4F4"/>
</svg>
