<svg width="25" height="25" viewBox="0 0 25 25" fill="none" xmlns="http://www.w3.org/2000/svg">
<path d="M23.9492 4.11478C23.9493 3.93079 23.9007 3.75005 23.8082 3.59097C23.7158 3.43189 23.5828 3.30016 23.4229 3.20919C23.2629 3.11821 23.0818 3.07125 22.8978 3.07307C22.7138 3.0749 22.5336 3.12546 22.3755 3.21959C21.7658 3.58249 21.1094 3.86041 20.4244 4.04563C19.4463 3.20629 18.1988 2.74699 16.9099 2.75168C15.4959 2.75331 14.1379 3.30438 13.1226 4.28854C12.1073 5.27269 11.5142 6.61289 11.4686 8.02614C8.68106 7.58162 6.15466 6.12669 4.37114 3.93879C4.26368 3.80841 4.12644 3.70578 3.97099 3.63957C3.81555 3.57335 3.64646 3.54548 3.47799 3.55832C3.30962 3.57218 3.14715 3.62685 3.00465 3.7176C2.86215 3.80835 2.74389 3.93244 2.66012 4.07915C2.23046 4.82896 1.98369 5.66953 1.93986 6.5326C1.89602 7.39567 2.05636 8.25691 2.40784 9.04639L2.4058 9.04842C2.24783 9.14572 2.11746 9.28192 2.02716 9.44399C1.93687 9.60607 1.88966 9.7886 1.89005 9.97413C1.88814 10.1272 1.89732 10.2802 1.91752 10.4319C2.02392 11.7426 2.6048 12.9695 3.55123 13.8824C3.48703 14.0047 3.44784 14.1386 3.43596 14.2762C3.42409 14.4139 3.43975 14.5525 3.48205 14.684C3.89467 15.9696 4.77216 17.0549 5.94279 17.7276C4.75346 18.1875 3.46927 18.3479 2.20337 18.1945C1.96907 18.1651 1.73173 18.2163 1.53029 18.3395C1.32885 18.4627 1.17527 18.6507 1.09474 18.8727C1.0142 19.0947 1.0115 19.3374 1.08708 19.5611C1.16265 19.7849 1.31201 19.9763 1.51066 20.1039C3.68784 21.5062 6.22282 22.2517 8.8125 22.2514C11.7492 22.2844 14.6145 21.346 16.9627 19.582C19.3109 17.8181 21.0104 15.3276 21.7967 12.4979C22.1644 11.2652 22.3522 9.98589 22.3542 8.69953C22.3542 8.63137 22.3542 8.56118 22.3531 8.491C22.897 7.90447 23.3183 7.21527 23.5924 6.46381C23.8664 5.71234 23.9877 4.91373 23.9492 4.11478ZM20.5048 7.46052C20.3327 7.664 20.2456 7.92593 20.2616 8.19192C20.2718 8.3638 20.2708 8.53672 20.2708 8.69953C20.2687 9.78655 20.1093 10.8675 19.7978 11.909C19.1556 14.3167 17.724 16.4392 15.7322 17.9367C13.7405 19.4341 11.3038 20.2199 8.8125 20.168C7.91758 20.1683 7.02575 20.0632 6.15544 19.8547C7.26524 19.4971 8.30293 18.9457 9.22042 18.2261C9.3894 18.093 9.51308 17.911 9.57447 17.7048C9.63586 17.4987 9.63196 17.2786 9.56331 17.0748C9.49466 16.871 9.36461 16.6934 9.19102 16.5664C9.01743 16.4394 8.8088 16.3693 8.59375 16.3655C7.72795 16.3521 6.90118 16.0031 6.28764 15.392C6.44328 15.3625 6.59791 15.3259 6.75151 15.2822C6.97652 15.2181 7.17343 15.0802 7.31053 14.8907C7.44763 14.7011 7.51695 14.4709 7.50732 14.2371C7.49769 14.0034 7.40967 13.7797 7.25743 13.602C7.1052 13.4244 6.89761 13.3032 6.6681 13.2578C6.16553 13.1586 5.69262 12.9448 5.28613 12.633C4.87964 12.3213 4.55052 11.92 4.32435 11.4604C4.51261 11.486 4.70207 11.502 4.89197 11.5082C5.11758 11.5116 5.33842 11.4431 5.52257 11.3128C5.70672 11.1824 5.84462 10.9968 5.91635 10.7829C5.98507 10.567 5.98154 10.3346 5.90627 10.1209C5.83101 9.90723 5.68812 9.72392 5.49927 9.59878C5.04109 9.29354 4.66578 8.87943 4.40694 8.39352C4.14809 7.90762 4.01381 7.36511 4.01612 6.81457C4.01612 6.7454 4.01815 6.67623 4.02222 6.60807C6.35687 8.78542 9.38505 10.069 12.5733 10.2325C12.7342 10.2389 12.8945 10.2086 13.042 10.1439C13.1895 10.0792 13.3203 9.98187 13.4247 9.85921C13.528 9.73535 13.6012 9.58921 13.6384 9.43229C13.6756 9.27536 13.6759 9.11193 13.6393 8.95487C13.5797 8.70629 13.5493 8.45161 13.5488 8.196C13.5497 7.30489 13.9041 6.45055 14.5342 5.82044C15.1643 5.19033 16.0187 4.83593 16.9098 4.83499C17.3683 4.83376 17.822 4.92759 18.2424 5.11056C18.6628 5.29352 19.0407 5.56165 19.3522 5.89802C19.4724 6.02727 19.6236 6.12364 19.7915 6.17795C19.9594 6.23226 20.1384 6.24272 20.3115 6.20832C20.7394 6.12505 21.1611 6.01289 21.5739 5.87263C21.2923 6.44864 20.9326 6.98299 20.5048 7.46052Z" fill="#333333"/>
</svg>
